<?xml version="1.0" encoding="iso-8859-1"?>
<!-- Generator: Adobe Illustrator 16.0.0, SVG Export Plug-In . SVG Version: 6.00 Build 0)  -->
<!DOCTYPE svg PUBLIC "-//W3C//DTD SVG 1.1//EN" "http://www.w3.org/Graphics/SVG/1.1/DTD/svg11.dtd">
<svg version="1.1" id="Capa_1" xmlns="http://www.w3.org/2000/svg" xmlns:xlink="http://www.w3.org/1999/xlink" x="0px" y="0px"
	 width="393.734px" height="393.734px" viewBox="0 0 393.734 393.734" style="enable-background:new 0 0 393.734 393.734;"
	 xml:space="preserve">
<g>
	<g>
		<g>
			<path fill="black" d="M363.05,128.146c-11.289-16.393-29.003-37.32-48.927-35.59c-3.639-5.521-14.748-23.269-24.428-40.911
				c-10.479-20.414-32.167-37.341-39.865-24.446c-1.039,2.672-1.495,9.947,8.496,32.769c-7.361-12.331-15.714-24.419-26.133-28.312
				c-13.03-4.906-21.917,1.864-8.106,29.399c20.867,51.104,24.271,66.587,23.611,72.871c-0.414,3.756-3.146,7.779-8.575,4.452
				c-19.569-9.463-64.566-18.731-81.341-18.731c-77.177,0-99.01,50.212-110.755,77.203c0,0-10.385,26.649-10.848,74.472
				c-9.482-9.091-18.888-21.19-24.914-21.19C3.789,250.131,0,256.586,0,269.31c0,12.718,14.64,37.554,33.513,50.501
				c3.979,2.857,8.803,2.822,13.754-0.103c1.735-1.057,2.78-1.441,3.302-1.591c8.965,8.346,16.517,14.783,22.437,19.131
				c18.195,24.47,14.973,20.645,101.544,33.734c0,0,13.213,1.243,18.365-8.917c3.844-11.241-1.636-18.548-10.28-24.595
				c-2.357-1.718-9.188-5.663-11.935-6.834c45.843,5.056,80.647,10.532,85.944,13.505c5.95,13.823,18.254,22.05,36.725,24.499
				c8.695,0,14.725-3.356,17.811-9.998c6.064-11.973-10.694-22.428-19.804-29.177c-8.131-5.753-12.136-15.583-11.758-17.486
				c0.061-0.192,0.133-0.474,0.69-0.792c13.205-7.212,25.179-18.633,35.537-33.939c9.529-14.075,14.789-28.15,15.624-41.89
				c12.016-0.774,28.469-10.021,40.286-17.702c14.592-9.481,21.978-20.662,21.978-33.218
				C393.753,166.564,379.383,151.886,363.05,128.146z M321.804,148.616c-5.567,0-10.106-4.533-10.106-10.118
				c0-5.569,4.539-10.1,10.106-10.1c5.578,0,10.105,4.53,10.105,10.1C331.909,144.077,327.382,148.616,321.804,148.616z"/>
		</g>
	</g>
</g>
<g>
</g>
<g>
</g>
<g>
</g>
<g>
</g>
<g>
</g>
<g>
</g>
<g>
</g>
<g>
</g>
<g>
</g>
<g>
</g>
<g>
</g>
<g>
</g>
<g>
</g>
<g>
</g>
<g>
</g>
</svg>
