<svg xmlns="http://www.w3.org/2000/svg" viewBox="0 0 1024 1024"><path d="M981 288q-66-9-137-16t-145-11L864 96l-64-64-225 225q-15-1-31-1h-32L256 0l-64 64 194 194q-45 2-89 4-45 3-88 7t-84 9q-42 4-82 10-11 41-18 83-8 42-13.5 86.5T3 547q-3 46-3 93t3 93q3 45 8.5 89.5T25 909q7 42 18 83 54 8 110 14 57 6 116 10t119 6q61 2 124 2t124-2q60-2 119-6t116-10q56-6 110-14 11-41 18-83 8-42 13.5-86.5t8.5-89.5q3-46 3-93t-3-93q-3-45-8.5-89.5T999 371q-7-42-18-83M864 875q-41 5-83 9t-86.5 6.5Q650 893 605 895q-46 1-93 1t-93-1q-45-2-89.5-4.5T243 884q-42-4-83-9-15-54-23.5-113T128 640q0-63 8.5-122T160 405q41-5 83-9t86.5-6.5Q374 387 419 385q46-1 93-1t93 1q45 2 89.5 4.5T781 396q42 4 83 9 15 54 23.5 113t8.5 122q0 63-8.5 122T864 875z"/></svg>