<svg xmlns="http://www.w3.org/2000/svg" viewBox="0 0 1024 1024"><path d="M698 619h144q12-56 12-86t-12-86H698q6 42 6 86t-6 86m-76 236q50-16 104-61t82-91H682q-20 80-60 152m-10-236q6-42 6-86t-6-86H412q-6 42-6 86t6 86h200M512 873q56-82 82-170H430q26 88 82 170M342 363q24-86 60-152-50 16-105 61t-81 91h126M216 703q26 46 81 91t105 61q-40-72-60-152H216m-34-84h144q-6-42-6-86t6-86H182q-12 56-12 86t12 86m330-426q-56 82-82 170h164q-26-88-82-170m296 170q-28-46-82-91t-104-61q36 66 60 152h126M512 107q176 0 301 125t125 301q0 176-125 301T512 959q-176 0-301-125T86 533q0-176 125-301t301-125z"/></svg>