<svg xmlns="http://www.w3.org/2000/svg" viewBox="0 0 1024 1024"><path d="M512 256q-53 0-100 20-46 20-81 55t-55 81q-20 47-20 100t20 100q20 46 55 81t81 55q47 20 100 20t100-20q46-20 81-55t55-81q20-47 20-100t-20-100q-20-46-55-81t-81-55q-47-20-100-20m0 416V352q66 0 113 47t47 113q0 66-47 113t-113 47m0 160q27 0 45.5 18.5T576 896v64q0 27-18.5 45.5T512 1024q-27 0-45.5-18.5T448 960v-64q0-27 18.5-45.5T512 832m0-640q-27 0-45.5-18.5T448 128V64q0-27 18.5-45.5T512 0q27 0 45.5 18.5T576 64v64q0 27-18.5 45.5T512 192m448 256q27 0 45.5 18.5T1024 512q0 27-18.5 45.5T960 576h-64q-27 0-45.5-18.5T832 512q0-27 18.5-45.5T896 448h64m-768 64q0 27-18.5 45.5T128 576H64q-27 0-45.5-18.5T0 512q0-27 18.5-45.5T64 448h64q27 0 45.5 18.5T192 512m637 226l45 46q19 18 19 44.5T874 874q-19 19-45.5 19T784 874l-46-45q-18-19-18-45.5t18-45.5q19-18 45.5-18t45.5 18M195 286l-45-46q-19-18-19-44.5t19-45.5q19-19 45.5-19t44.5 19l46 45q18 19 18 45.5T286 286q-19 18-45.5 18T195 286m634 0q-19 18-45.5 18T738 286q-18-19-18-45.5t18-45.5l46-45q18-19 44.5-19t45.5 19q19 19 19 45.5T874 240l-45 46M195 738q19-18 45.5-18t45.5 18q18 19 18 45.5T286 829l-46 45q-18 19-44.5 19T150 874q-19-19-19-45.5t19-44.5l45-46z"/></svg>