<svg xmlns="http://www.w3.org/2000/svg" viewBox="0 0 1024 1024"><path d="M512 703q70 0 120-50t50-120q0-70-50-120t-120-50q-70 0-120 50t-50 120q0 70 50 120t120 50m124-386q70-56 162-56 68 0 128 34 0 62-38 126t-90 94q-4 2-11 6t-13 7q-6 3-12 5 18 8 36 18 52 30 90 94t38 126q-60 34-128 34-92 0-162-56 4 28 4 40 0 70-35 129t-93 93q-58-34-93-93t-35-129q0-12 4-40-70 56-162 56-68 0-128-34 0-74 48-145t116-93l-36-18q-52-30-90-94T98 295q64-36 128-36 90 0 162 58-4-28-4-40 0-70 35-129t93-93q58 34 93 93t35 129q0 12-4 40z"/></svg>