<svg xmlns="http://www.w3.org/2000/svg" viewBox="0 0 1024 1024"><path d="M242 863l60-60q72 56 168 68v86q-54-6-121-34t-107-60m312 8q94-12 166-68l62 60q-102 82-228 94v-86m228-128q58-72 68-166h86q-6 52-34 119t-60 107l-60-60M640 533q0 52-38 90t-90 38q-52 0-90-38t-38-90q0-52 38-90t90-38q52 0 90 38t38 90m-466 42q10 94 68 166l-60 62q-82-102-94-228h86m68-252q-56 74-68 168H88q6-54 34-121t60-107l60 60m608 168q-12-96-68-168l60-60q82 102 94 228h-86m-68-288l-60 60q-74-56-168-68v-86q54 6 121 34t107 60m-312-8q-96 12-168 68l-60-60q102-82 228-94v86z"/></svg>