<svg xmlns="http://www.w3.org/2000/svg" viewBox="0 0 1024 1024"><path d="M320 64H64v256h256V64m64-64v384H0V0h384M128 128h128v128H128V128m832-64H704v256h256V64m64-64v384H640V0h384M768 128h128v128H768V128M320 704H64v256h256V704m64-64v384H0V640h384M128 768h128v128H128V768M448 0h64v64h-64V0m64 64h64v64h-64V64m-64 64h64v64h-64v-64m64 64h64v64h-64v-64m-64 64h64v64h-64v-64m64 64h64v64h-64v-64m-64 64h64v64h-64v-64m0 128h64v64h-64v-64m64 64h64v64h-64v-64m-64 64h64v64h-64v-64m64 64h64v64h-64v-64m-64 64h64v64h-64v-64m64 64h64v64h-64v-64m-64 64h64v64h-64v-64m64 64h64v64h-64v-64m448-448h64v64h-64v-64m-896 0h64v64H64v-64m64-64h64v64h-64v-64M0 448h64v64H0v-64m256 0h64v64h-64v-64m64 64h64v64h-64v-64m64-64h64v64h-64v-64m192 64h64v64h-64v-64m64-64h64v64h-64v-64m64 64h64v64h-64v-64m64-64h64v64h-64v-64m64 64h64v64h-64v-64m64-64h64v64h-64v-64m64 192h64v64h-64v-64m-384 0h64v64h-64v-64m64-64h64v64h-64v-64m64 64h64v64h-64v-64m128 0h64v64h-64v-64m64-64h64v64h-64v-64m64 192h64v64h-64v-64m-384 0h64v64h-64v-64m64-64h64v64h-64v-64m128 0h64v64h-64v-64m64 64h64v64h-64v-64m64-64h64v64h-64v-64m64 192h64v64h-64v-64m-320-64h64v64h-64v-64m64 64h64v64h-64v-64m64-64h64v64h-64v-64m64 64h64v64h-64v-64m-192 64h64v64h-64v-64m128 0h64v64h-64v-64m128 0h64v64h-64v-64z"/></svg>