<svg xmlns="http://www.w3.org/2000/svg" viewBox="0 0 1024 1024"><path d="M748 467q-26 0-44 12t-18 34v2q0 24 40 38 14 6 36 10t58 16q16 6 44 24 14 10 26 32 10 20 10 42 0 74-88 104-24 8-62 8-112 0-146-78-10-24-10-44h80q0 26 23 43t55 17q66 0 66-46 0-12-6-21t-12-12q-6-3-20-9-10-4-42-12-56-12-96-38-36-24-36-72 0-76 84-104 24-8 58-8 70 0 110 34 40 32 40 84h-84q0-40-38-50-24-6-28-6m-318 60q84 28 84 116 0 74-48 110-46 40-120 40t-121-38q-47-38-47-106h86q0 40 22 56 26 20 60 20 84 0 84-82t-92-82h-52v-66h50q64 0 82-46 4-10 4-32 0-76-76-76-52 0-72 40-6 12-6 30h-84q0-90 96-128 34-10 66-10 76 0 118 36t42 108q0 72-76 110z"/></svg>