<svg xmlns="http://www.w3.org/2000/svg" viewBox="0 0 1024 1024"><path d="M550 585V477q0-72-20-106-14-30-60-30-20 0-36 6-46 28-46 132v106q0 48 4 66 2 10 18 42t60 32q44 0 60-32 12-24 16-42t4-66m-246-94q0-218 166-218 82 0 120 48 44 56 44 170v82q0 220-164 220-166 0-166-220v-82m568-24q-60 0-60 46 0 28 38 40 12 4 38 10 18 4 56 16 16 6 44 24 16 10 26 32 10 20 10 42 0 74-88 104-24 8-60 8-114 0-148-78-10-24-10-44h82q0 28 22 44t54 16q66 0 66-46 0-12-6-21t-12-12q-6-3-20-9t-49-15q-35-9-47-13-16-6-40-22-38-26-38-72 0-76 84-104 24-8 58-8 70 0 110 34 40 32 40 84h-84q0-42-36-50-24-6-30-6M0 351l202-74h12v512h-86V379L0 423v-72z"/></svg>