<svg xmlns="http://www.w3.org/2000/svg" viewBox="0 0 1024 1024"><path d="M855 917q-8 0-46-8.5T767 888q-7-30-9-62t-2-68V217q0-61 8-94.5l8-33.5q-1-6-6-15t-12-9h-4q-4 0-36 16.5T647 98q-29 0-51-17t-55-17q-69 0-120 27-52 27-85.5 75T286 281q-17 66-17 146v11q0 3-2 6t-5 3h-60q-6 0-14 23t-8 37q0 4 1 6.5t3 2.5h78q3 0 5 3.5t2 6.5v96q0 46-.5 82.5T268 763v22q0 16-2 46t-9 57q-3 12-39.5 20.5T168 917q-6 0-6 18.5t6 24.5q45-2 80-4.5t80-2.5q42 0 77.5 2.5T485 960q2-7 1.5-25t-6.5-18q-8 0-46-8.5T392 888q-7-30-8.5-62t-2.5-68V525q0-4 2.5-6.5t5.5-2.5h152q7-16 12-32.5t5-26.5q0-6-1-8t-6-2H388q-2 0-4.5-2.5T381 440v-53q0-49 9-94 10-44 28.5-78t45.5-54q26-20 60-20 47 0 82.5 40T642 339q0 3 .5 5.5t.5 4.5v436q0 16-2 46t-9 57q-3 12-39.5 20.5T543 917q-6 0-6 18.5t6 24.5q45-2 80-4.5t80-2.5q42 0 77.5 2.5T860 960q2-7 1.5-25t-6.5-18z"/></svg>