<svg xmlns="http://www.w3.org/2000/svg" viewBox="0 0 1024 1024"><path d="M800 640q-46 0-87-18-41-17-71.5-47.5T594 503q-18-41-18-87t18-87q17-41 47.5-71.5T713 210q41-18 87-18t87 18q41 17 71.5 47.5T1006 329q18 41 18 87l1 32q0 93-35 174-35 82-96 143t-143 96q-81 35-174 35V768q64 0 122.5-24T803 674q9-8 17-17.5t15-19.5q-8 2-17 2.5t-18 .5m-576 0q-46 0-87-18-41-17-71.5-47.5T18 503Q0 462 0 416t18-87q17-41 47.5-71.5T137 210q41-18 87-18t87 18q41 17 71.5 47.5T430 329q18 41 18 87l1 32q0 93-35 174-35 82-96 143t-143 96Q94 896 1 896V768q64 0 122.5-24T227 674q9-8 17-17.5t15-19.5q-8 2-17 2.5t-18 .5z"/></svg>