<svg xmlns="http://www.w3.org/2000/svg" viewBox="0 0 1024 1024"><path d="M225 448q46 0 87 18 41 17 71.5 47.5T431 585q18 41 18 87t-18 87q-17 41-47.5 71.5T312 878q-41 18-87 18t-87-18q-41-17-71.5-47.5T19 759Q1 718 1 672l-1-32q0-93 35-174 35-82 96-143t143-96q81-35 174-35v128q-64 0-122.5 24T222 414q-9 8-17 17.5T190 451q8-2 17-2.5t18-.5m576 0q46 0 87 18 41 17 71.5 47.5T1007 585q18 41 18 87t-18 87q-17 41-47.5 71.5T888 878q-41 18-87 18t-87-18q-41-17-71.5-47.5T595 759q-18-41-18-87l-1-32q0-93 35-174 35-82 96-143t143-96q81-35 174-35v128q-64 0-122.5 24T798 414q-9 8-17 17.5T766 451q8-2 17-2.5t18-.5z"/></svg>