<svg xmlns="http://www.w3.org/2000/svg" viewBox="0 0 1024 1024"><path d="M592 813q28 0 56-37t36-113q-60 16-92 54t-32 64q0 14 10 23t22 9M196 315l-74-72q20-24 36-40 54-54 116-54 38 0 73 30t35 92q0 60-56 140-56 78-78 150-12 34-7 58t21 24q18 0 48-36 44-44 98-116 96-120 210-120 84 0 125 55t47 123h106v106H792q-12 138-74 200t-128 62q-56 0-96-39t-40-93q0-66 60-138t170-92q-2-16-3-22t-6-19q-5-13-12-19t-21-11q-14-5-34-5-56 0-174 146-34 42-47 57t-37 35q-24 20-46 26-70 22-120-26t-50-120q0-30 11-66t29-70q18-34 34-61t31-49q15-22 17-24 34-56 12-64-14-6-72 52z"/></svg>