<svg xmlns="http://www.w3.org/2000/svg" viewBox="0 0 1024 1024"><path d="M736 896q-66 0-113-47t-47-113v-96H448v96q0 66-47 113t-113 47q-66 0-113-47t-47-113q0-66 47-113t113-47h96V448h-96q-66 0-113-47t-47-113q0-66 47-113t113-47q66 0 113 47t47 113v96h128v-96q0-66 47-113t113-47q66 0 113 47t47 113q0 66-47 113t-113 47h-96v128h96q66 0 113 47t47 113q0 66-47 113t-113 47m-96-256v96q0 40 28 68t68 28q40 0 68-28t28-68q0-40-28-68t-68-28h-96m-352 0q-40 0-68 28t-28 68q0 40 28 68t68 28q40 0 68-28t28-68v-96h-96m160-64h128V448H448v128m192-192h96q40 0 68-28t28-68q0-40-28-68t-68-28q-40 0-68 28t-28 68v96M288 192q-40 0-68 28t-28 68q0 40 28 68t68 28h96v-96q0-40-28-68t-68-28z"/></svg>