<svg xmlns="http://www.w3.org/2000/svg" viewBox="0 0 1024 1024"><path d="M640 703q34 0 60 26t26 60q0 34-26 60t-60 26q-34 0-60-26t-26-60q0-34 26-60t60-26m0-256q34 0 60 26t26 60q0 34-26 60t-60 26q-34 0-60-26t-26-60q0-34 26-60t60-26m0-84q-34 0-60-26t-26-60q0-34 26-60t60-26q34 0 60 26t26 60q0 34-26 60t-60 26M384 191q34 0 60 26t26 60q0 34-26 60t-60 26q-34 0-60-26t-26-60q0-34 26-60t60-26m0 256q34 0 60 26t26 60q0 34-26 60t-60 26q-34 0-60-26t-26-60q0-34 26-60t60-26m86 342q0 34-26 60t-60 26q-34 0-60-26t-26-60q0-34 26-60t60-26q34 0 60 26t26 60z"/></svg>