<svg xmlns="http://www.w3.org/2000/svg" viewBox="0 0 1024 1024"><path d="M842 589q-10-10-32.5-15t-57.5-6q-23 0-51 2t-57 6q-13-7-26.5-15.5T594 542q-29-27-52.5-63.5T503 401q1-4 2-7.5t2-6.5l10-67q10-67 5-98 0-4-.5-6l-1.5-6-2-5q-5-10-13.5-18.5T482 178h-11q-15 0-26 7t-15 19q-10 36-1.5 90T455 418l-6 16q-13 32-28.5 63.5T390 558l-3 5q-15 30-29 55.5T332 666l-18 9q-1 0-17 8.5T276 695q-44 27-72 55.5T171 803q-1 8 .5 16.5T181 832l17 9q5 2 11 3.5t12 1.5q31 0 69.5-41T379 676q59-19 123-34.5T624 618q44 25 94 40.5t84 15.5q6 0 11.5-.5t9.5-1.5q7-2 12-5.5t9-8.5q6-10 8-23.5t0-27.5q0-4-3-9t-7-9M212 814q5-16 27-44t56-56q2-1 6.5-5.5t9.5-8.5q-35 56-59.5 81.5T212 814m266-614q11 0 16.5 21t5.5 45q1 24-4 41.5T484 337q-6-18-8.5-44t-2.5-45l.5-24q.5-24 4.5-24m-79 437q7-12 14.5-25.5T428 584q19-35 31-62.5t21-50.5q17 32 38 58.5t47 47.5q3 3 6 5.5t7 5.5q-51 10-95.5 22.5T399 637m430-3q-3 2-10.5 3t-13.5 1q-18 0-42-8t-56-22q12-1 23.5-1.5t21.5-.5q19 0 28.5 1t28.5 5q18 5 20.5 12.5t-.5 9.5m89-405q-17-23-39.5-48.5T831 129q-26-25-51.5-47.5T731 42q-39-28-59.5-35T640 0H144q-33 0-56.5 23.5T64 80v864q0 33 23.5 56.5T144 1024h736q33 0 56.5-23.5T960 944V320q0-11-7-31.5T918 229m-133-54q23 23 41.5 43.5T858 256H704V102q17 13 37.5 31.5T785 175m111 769q0 7-4.5 11.5T880 960H144q-7 0-11.5-4.5T128 944V80q0-7 4.5-11.5T144 64h496v224q0 13 9.5 22.5T672 320h224v624z"/></svg>