<svg xmlns="http://www.w3.org/2000/svg" viewBox="0 0 1024 1024"><path d="M918 229q-17-23-39.5-48.5T831 129q-26-25-51.5-47.5T731 42q-39-28-59.5-35T640 0H144q-33 0-56.5 23.5T64 80v864q0 33 23.5 56.5T144 1024h736q33 0 56.5-23.5T960 944V320q0-11-7-31.5T918 229m-133-54q23 23 41.5 43.5T858 256H704V102q17 13 37.5 31.5T785 175m111 769q0 7-4.5 11.5T880 960H144q-7 0-11.5-4.5T128 944V80q0-7 4.5-11.5T144 64h496v224q0 13 9.5 22.5T672 320h224v624M736 832H288q-13 0-22.5-9.5T256 800q0-13 9.5-22.5T288 768h448q13 0 22.5 9.5T768 800q0 13-9.5 22.5T736 832m0-128H288q-13 0-22.5-9.5T256 672q0-13 9.5-22.5T288 640h448q13 0 22.5 9.5T768 672q0 13-9.5 22.5T736 704m0-128H288q-13 0-22.5-9.5T256 544q0-13 9.5-22.5T288 512h448q13 0 22.5 9.5T768 544q0 13-9.5 22.5T736 576z"/></svg>