<svg xmlns="http://www.w3.org/2000/svg" viewBox="0 0 1024 1024"><path d="M512 0Q406 0 313 40q-94 40-163.5 109.5T40 313Q0 406 0 512t40 199q40 94 109.5 163.5T313 984q93 40 199 40t199-40q94-40 163.5-109.5T984 711q40-93 40-199t-40-199q-40-94-109.5-163.5T711 40Q618 0 512 0m0 928q-86 0-162-33-76-32-132.5-88.5T129 674q-33-76-33-162t33-162q32-76 88.5-132.5T350 129q76-33 162-33t162 33q76 32 132.5 88.5T895 350q33 76 33 162t-33 162q-32 76-88.5 132.5T674 895q-76 33-162 33M355 707l90 90 286-285-286-285-90 90 194 195-194 195z"/></svg>