<svg xmlns="http://www.w3.org/2000/svg" viewBox="0 0 1024 1024"><path d="M810 149h128v42L640 491l-86-86 256-256M512 555q22 0 22-22t-22-22q-22 0-22 22t22 22M256 875q34 0 60-25t26-61q0-36-26-61t-60-25q-34 0-60 25t-26 61q0 36 26 61t60 25m0-512q34 0 60-25t26-61q0-36-26-61t-60-25q-34 0-60 25t-26 61q0 36 26 61t60 25m156-16l526 528v42H810L512 619 412 719q14 30 14 70 0 70-50 120t-120 50q-70 0-120-50T86 789q0-70 50-120t120-50q40 0 70 14l100-100-100-100q-30 14-70 14-70 0-120-50T86 277q0-70 50-120t120-50q70 0 120 50t50 120q0 40-14 70z"/></svg>