<svg xmlns="http://www.w3.org/2000/svg" viewBox="0 0 1024 1024"><path d="M512 96q-42 0-82 8t-77.5 23.5Q315 143 281 166q-34 22-63 52-30 29-52 63-23 34-38.5 71.5T104 430q-8 40-8 82t8 82q8 40 23.5 77.5T166 743q22 34 52 63 29 30 63 52 34 23 71.5 38.5T430 920q40 8 82 8t82-8q40-8 77.5-23.5T743 858q34-22 63-52 30-29 52-63 23-34 38.5-71.5T920 594q8-40 8-82t-8-82q-8-40-23.5-77.5T858 281q-22-34-52-63-29-30-63-52-34-23-71.5-38.5T594 104q-40-8-82-8m0-96q106 0 199 40 94 40 163.5 109.5T984 313q40 93 40 199t-40 199q-40 94-109.5 163.5T711 984q-93 40-199 40t-199-40q-94-40-163.5-109.5T40 711Q0 618 0 512t40-199q40-94 109.5-163.5T313 40Q406 0 512 0m-64 704h128v128H448V704m0-512h128v384H448V192z"/></svg>