<svg xmlns="http://www.w3.org/2000/svg" viewBox="0 0 1024 1024"><path d="M736 533q0-20-2-30l64-48q10-8 2-20l-60-104q-6-10-18-6l-74 30q-26-20-50-30l-12-78q-4-12-14-12H452q-12 0-14 12l-12 80q-32 14-50 28l-74-30q-10-4-18 8l-60 102q-2 2-2 8 0 10 4 12l64 48q-2 10-2 30t2 30l-64 48q-4 2-4 12 0 6 2 8l60 104q6 10 18 6l74-30q26 20 50 30l12 78q4 12 14 12h120q12 0 14-12l12-80q32-14 50-28l74 30q10 4 18-8l60-102q8-12-2-20l-64-48q2-10 2-30m74-384q36 0 61 25t25 61v596q0 36-25 61t-61 25H214q-36 0-61-25t-25-61V235q0-36 25-61t61-25h596M512 447q34 0 60 26t26 60q0 34-26 60t-60 26q-34 0-60-26t-26-60q0-34 26-60t60-26z"/></svg>