<svg xmlns="http://www.w3.org/2000/svg" viewBox="0 0 1024 1024"><path d="M320 768V0H192v768H32l224 224 224-224H320m608-320H672q-9 0-16.5-4.5T644 431q-4-8-4-16.5t5-16.5L868 64H672q-13 0-22.5-9.5T640 32q0-13 9.5-22.5T672 0h256q9 0 16.5 4.5T956 17q4 8 4 16.5T955 50L732 384h196q13 0 22.5 9.5T960 416q0 13-9.5 22.5T928 448m93 530L829 594q-4-8-12-13t-17-5q-9 0-17 5t-12 13L579 978q-6 12-1.5 24.5T594 1021q3 1 6.5 2t7.5 1q9 0 16.5-4.5T637 1006l55-110h216l55 110q6 12 18.5 16.5t24.5-1.5q12-6 16.5-18.5T1021 978M724 832l76-152 76 152H724z"/></svg>