<svg xmlns="http://www.w3.org/2000/svg" viewBox="0 0 1024 1024"><path d="M320 768V0H192v768H32l224 224 224-224H320m608 256H672q-9 0-16.5-4.5T644 1007q-4-8-4-16.5t5-16.5l223-334H672q-13 0-22.5-9.5T640 608q0-13 9.5-22.5T672 576h256q9 0 16.5 4.5T956 593q4 8 4 16.5t-5 16.5L732 960h196q13 0 22.5 9.5T960 992q0 13-9.5 22.5T928 1024m93-622L829 18q-4-8-12-13t-17-5q-9 0-17 5t-12 13L579 402q-6 12-1.5 24.5T594 445q3 1 6.5 2t7.5 1q9 0 16.5-4.5T637 430l55-110h216l55 110q6 12 18.5 16.5t24.5-1.5q12-6 16.5-18.5T1021 402M724 256l76-152 76 152H724z"/></svg>