<svg xmlns="http://www.w3.org/2000/svg" viewBox="0 0 1024 1024"><path d="M512 1024q-51 0-101-10-49-10-95-29t-88-47q-42-28-78-64t-64-78q-28-42-47-88t-29-95Q0 563 0 512q0-73 20-142.5T79 239q37-59 89-106.5T283 54l43 86q-51 25-93.5 63.5T160 291q-31 49-47.5 105.5T96 512q0 86 33 162 32 76 88.5 132.5T350 895q76 33 162 33t162-33q76-32 132.5-88.5T895 674q33-76 33-162 0-59-16.5-115.5T864 291q-30-49-72.5-87.5T698 140l43-86q63 31 115 78.5T945 239q39 61 59 130.5t20 142.5q0 51-10 101-10 49-29 95t-47 88q-28 42-64 78t-78 64q-42 28-88 47t-95 29q-50 10-101 10z"/></svg>