<svg xmlns="http://www.w3.org/2000/svg" viewBox="0 0 1024 1024"><path d="M1024 512q-1-50-11.5-99.5T981 318q-20-46-48.5-87T868 156q-35-35-77-61.5T703 50q-45-18-93.5-26.5T512 16q-49 1-96.5 11.5T324 57q-45 20-84.5 47.5T167 167q-33 34-59 74.5T65 327q-18 44-26 91t-7 94q1 47 11 93t29 89q19 43 46 81.5t60 70.5q34 32 73 57t82 41q43 17 88 25t91 7q46-1 90.5-11t85.5-28q41-18 78.5-44t67.5-59q31-32 55.5-70t40.5-79q9-25 16-51t10-53h4q27 0 45.5-18.5T1024 517v-2.5-2.5M922 682q-17 40-42.5 75.5T823 823q-31 30-67.5 53T679 915q-40 15-82.5 22.5T512 944q-42-1-83.5-10T348 908q-38-17-72.5-41.5T212 812q-29-30-51-65.5T124 673q-15-39-22-79.5T96 512q1-41 10-81t25-77q17-37 40-70t52-61q30-27 63.5-48.5T357 139q37-15 76.5-21.5T512 112q39 1 77.5 9.5T664 146q35 16 67 38.5t58 50.5q27 28 47.5 60.5T871 364q13 35 19.5 72.5T896 512v5q0 25 16.5 43t40.5 21q-5 26-12.5 51.5T922 682z"/></svg>