<svg xmlns="http://www.w3.org/2000/svg" viewBox="0 0 1024 1024"><path d="M384 128q0-53 37.5-90.5T512 0q53 0 90.5 37.5T640 128q0 53-37.5 90.5T512 256q-53 0-90.5-37.5T384 128m272 112q0-53 37.5-90.5T784 112q53 0 90.5 37.5T912 240q0 53-37.5 90.5T784 368q-53 0-90.5-37.5T656 240m176 272q0-27 18.5-45.5T896 448q27 0 45.5 18.5T960 512q0 27-18.5 45.5T896 576q-27 0-45.5-18.5T832 512M720 784q0-27 18.5-45.5T784 720q26 0 45 18.5t19 45.5q0 26-19 45t-45 19q-27 0-45.5-19T720 784M448 896q0-27 18.5-45.5T512 832q27 0 45.5 18.5T576 896q0 27-18.5 45.5T512 960q-27 0-45.5-18.5T448 896M176 784q0-27 19-45.5t45-18.5q27 0 45.5 18.5T304 784q0 26-18.5 45T240 848q-26 0-45-19t-19-45m-32-544q0-39 28.5-67.5T240 144q40 0 68 28.5t28 67.5q0 40-28 68t-68 28q-39 0-67.5-28T144 240M56 512q0-30 21-51t51-21q30 0 51 21t21 51q0 30-21 51t-51 21q-30 0-51-21t-21-51z"/></svg>