<svg xmlns="http://www.w3.org/2000/svg" viewBox="0 0 1024 1024"><path d="M0 514q0 3 .5 5.5T1 525q1 2 1 3v3q0 1 .5 2.5T3 537q0 2 .5 4t.5 4q1 5 1.5 9.5T7 564l2 10q1 5 2 11 1 3 1.5 6t1.5 5q1 3 1.5 6t1.5 6q1 2 1 3.5t1 3.5q0 1 .5 2.5T21 621q1 3 2 6.5t2 6.5q0 1 .5 1.5t.5 1.5q0 1 .5 2t.5 2q1 1 1.5 3t1.5 3q1 4 2.5 7.5T35 661t2.5 6.5Q39 671 41 675q1 2 1.5 3.5T44 682q1 2 2 3.5t1 3.5q2 4 4 7.5t4 6.5q1 4 3 7.5t4 7.5q1 2 2 3.5t2 3.5q1 2 2.5 3.5T71 732q2 4 4 7.5t5 7.5q9 14 19.5 28t22.5 27q12 13 24.5 25.5T173 851q13 12 27.5 22t28.5 20q15 9 30 16.5t30 14.5q3 1 7 2.5t8 3.5q1 0 3 1l4 2q2 0 3.5 1t3.5 1q4 2 7.5 3t7.5 2q3 1 7 2t7 2q2 1 3.5 1.5t3.5.5q2 1 3.5 1.5t3.5.5q4 1 7 2t7 1q3 1 6.5 1.5t6.5 1.5q2 0 3.5.5t2.5.5q1 0 2 .5t2 .5h3q3 1 6 1.5t6 .5q2 0 3 .5t3 .5h6q3 1 5.5 1h5.5q3 1 5.5 1h5.5q1 26 19.5 44.5T511 1024h2q3 0 6-.5t5-.5q2-1 3-1h3q1 0 3-.5t3-.5q2 0 4-.5t4-.5q5-1 9.5-1.5t9.5-1.5q5-1 10.5-2t10.5-2q3-1 6-1.5t6-1.5q2-1 5-1.5t7-1.5q1-1 2.5-1t3.5-1q1 0 2.5-.5t3.5-1.5q3-1 6.5-2t6.5-2q1 0 2-.5l1-.5q1 0 2-.5t2-.5q1-1 3-1.5t3-1.5q4-1 7.5-2.5t6.5-2.5q4-1 7.5-2.5t6.5-3.5q2-1 3.5-1.5t3.5-1.5q2-1 3.5-2t3.5-1q4-2 7.5-4t7.5-4q3-1 6.5-3t7.5-4q2-1 3.5-2t3.5-2q2-1 3.5-2.5t3.5-2.5q4-2 7.5-4t7.5-5q14-9 28-19.5t27-22.5q13-12 25.5-24.5T850 851q12-13 22-27.5t20-28.5q9-15 16.5-30t14.5-30q1-3 2.5-7t3.5-8q1-1 1.5-3t1.5-4q0-2 1-3.5t1-3.5q2-4 3-7.5t2-7.5q1-3 2.5-7t2.5-7q0-2 .5-3.5t1.5-3.5q0-2 .5-3.5t.5-3.5q1-4 2-7t2-7q0-3 1-6.5t1-6.5q0-2 .5-3.5t.5-2.5q1-1 1-2v-2-1-2q1-3 1.5-6t.5-6q0-2 .5-3t.5-3v-2.5-3.5q1-3 1-5.5V588q1-3 1-5.5V578v-1.5-.5q27 0 45.5-19t18.5-45v-.5-1.5q0-3-.5-5.5t-.5-5.5q-1-2-1-3v-3q0-1-.5-2.5t-.5-3.5q0-2-.5-4t-.5-4q-1-5-1.5-9.5t-1.5-9.5l-2-10q-1-5-2-11-1-3-1.5-6t-1.5-5q-1-3-1.5-6t-1.5-6q-1-2-1-3.5t-1-3.5q0-1-.5-2.5t-1.5-3.5q-1-3-2-6.5t-2-6.5q0-1-.5-1.5t-.5-1.5q0-1-.5-2t-.5-2q-1-1-1.5-3t-1.5-3q-1-4-2.5-7.5T989 363t-2.5-6.5Q985 353 983 349q-1-2-1.5-3.5T980 342q-1-2-2-3.5t-1-3.5q-2-4-4-7.5t-4-6.5q-1-4-3-7.5t-4-7.5q-1-2-2-3.5t-2-3.5q-1-2-2.5-3.5T953 292q-2-4-4-7.5t-5-7.5q-9-14-19.5-28T902 222q-12-13-24.5-25.5T851 173q-13-12-27.5-22T795 131q-15-9-30-16.5T735 100q-3-1-7-2.5t-8-3.5q-1 0-3-1l-4-2q-2 0-3.5-1t-3.5-1q-4-2-7.5-3t-7.5-2q-3-1-7-2t-7-2q-2-1-3.5-1.5T670 78q-2-1-3.5-1.5T663 76q-4-1-7-2t-7-1q-3-1-6.5-1.5T636 70q-2 0-3.5-.5T630 69q-1 0-2-.5t-2-.5h-3q-3-1-6-1.5t-6-.5q-2 0-3-.5t-3-.5h-6q-3-1-5.5-1H588q-3-1-5.5-1H575q0-26-19-44.5T511 0h-2q-3 0-5.5.5T498 1q-1 1-2.5 1H492q-1 0-2.5.5T486 3q-2 0-4 .5t-4 .5q-4 1-9 1.5T459 7l-10 2q-5 1-11 2-3 1-5.5 1.5T427 14q-3 1-6 1.5t-6 1.5q-2 1-3.5 1t-3.5 1q-1 0-2.5.5T402 21q-3 1-6.5 2t-6.5 2q-1 0-1.5.5t-1.5.5q-1 0-2 .5t-2 .5q-1 1-3 1.5t-3 1.5q-4 1-7 2.5t-7 2.5q-3 1-6.5 2.5T348 41q-2 1-3.5 1.5T341 44q-2 1-3.5 2t-3.5 1q-4 2-7.5 4t-6.5 4q-4 1-7.5 3t-7.5 4q-2 1-3.5 2t-3.5 2q-2 1-3.5 2.5T291 71q-4 2-7.5 4t-6.5 5q-15 9-28.5 19.5T221 122q-13 12-25.5 24.5T172 173q-12 13-22 27.5T131 229q-9 15-17 30t-15 30q-1 3-2.5 7t-3.5 8q0 1-1 3l-2 4q0 2-1 3.5t-1 3.5q-1 4-2.5 7.5T83 333q-1 3-2 7t-2 7q-1 2-1.5 3.5T77 354q-1 2-1.5 3.5T75 361q-1 4-2 7t-1 7q-1 3-1.5 6.5T69 388q0 2-.5 3.5T68 394q0 1-.5 2t-.5 2v3q-1 3-1.5 6t-.5 6q0 2-.5 3t-.5 3v6q-1 3-1 5.5v5.5q-1 3-1 5.5v6.5q-26 1-44 19.5T0 512v2m74-65v-.5-.5q0-2 1-4.5t1-5.5q1-2 1.5-5t1.5-5q0-2 .5-3l1.5-3q0-1 .5-2.5t.5-2.5l2-6q1-3 2-5 0-1 .5-2l.5-1q0-1 .5-1.5t.5-1.5q1-2 1.5-3.5T91 394l2-6 2-6q1-3 2.5-6t3.5-6q0-2 1-3.5t1-2.5q1-2 2-3.5t1-2.5q2-3 3.5-6.5t3.5-6.5q1-3 3-6l4-6q1-2 1.5-3.5t1.5-2.5q1-2 2-3.5t2-3.5l4-6 4-6q8-12 17.5-24t19.5-24q11-11 22-21.5t23-20.5q12-10 24.5-18.5T267 183q12-8 25-14.5t26-11.5q4-2 7-3l6-2q2-1 3.5-1.5t3.5-1.5q1 0 2.5-1t3.5-1l6-2q3-1 7-2l6-2 6-2q2 0 3.5-.5t2.5-.5q2-1 3.5-1t2.5-1q3 0 6-1t6-1q3-1 5.5-1.5t5.5-.5q2-1 3-1h3q1-1 1.5-1h3.5q3-1 5.5-1t5.5-1h7.5q1.5 0 2.5-1h10q2 0 4-.5t5-.5h34q2 1 3.5 1h8.5q3 1 5.5 1h6.5q23-1 40.5-16T574 74h1l1 1q2 0 4.5.5T586 77q2 1 5 1.5t5 1.5q2 0 3 .5l3 1.5q1 0 2.5.5t2.5.5l6 2q3 1 5 2 1 0 2 .5l1 .5q1 0 1.5.5t1.5.5q2 1 3.5 1.5t2.5.5q3 2 6 3l6 2q3 1 6 2.5t6 2.5q2 1 3.5 2t2.5 1q2 1 3.5 1.5t2.5 1.5q3 2 6.5 3.5t6.5 3.5q3 1 6 3l6 4q2 0 3.5 1t2.5 2q2 1 3.5 2t3.5 2l6 4 6 4q12 8 24 17.5t24 19.5q11 11 21.5 22t20.5 23q10 12 18.5 24.5T841 268q8 12 14.5 25t11.5 26q2 4 3 7l2 6q1 2 1.5 3.5t1.5 3.5q0 1 1 2.5t1 3.5l2 6q1 3 2 7l2 6 2 6q0 1 .5 2.5t.5 3.5q1 1 1 2.5t1 3.5q0 3 1 6t1 6q1 3 1.5 5.5t.5 5.5q1 2 1 3v3q1 0 1 1v4q1 3 1 5.5t1 5.5v7.5q0 1.5 1 2.5v10q0 2 .5 4t.5 5v34q-1 2-1 3.5v8.5q-1 2-1 4.5v7.5q1 23 16 40t37 21v1q-1 2-1.5 4.5T946 586q-1 2-1.5 5t-1.5 5q0 2-.5 3t-.5 3q-1 1-1.5 2.5t-.5 2.5l-2 6q-1 3-2 5 0 1-.5 2l-.5 1q0 1-.5 1.5t-.5 1.5q-1 2-1.5 3.5t-.5 2.5q-1 3-2.5 6t-2.5 6-2.5 6-2.5 6q-1 2-1.5 3.5T919 660q-1 2-1.5 3.5T916 666q-2 3-3.5 6.5T910 679l-4 6q-2 3-3 6-1 2-2 3.5t-2 2.5q-1 2-2 3.5t-2 3.5l-4 6-4 6q-8 12-17.5 24T850 764q-11 11-22 21.5T805 806q-12 10-24.5 18.5T756 841q-13 8-26 14.5T704 867q-3 2-6.5 3t-6.5 2q-2 1-3.5 1.5T685 875q-2 0-3.5 1t-3.5 1l-6 2-6 2q-4 1-7 2l-6 2q-1 0-2.5.5t-3.5.5q-1 1-2.5 1t-3.5 1q-3 0-6 1t-6 1q-3 1-5.5 1.5t-5.5.5q-2 1-3 1h-3q0 1-1 1h-4q-3 1-5.5 1t-5.5 1h-7.5q-1.5 0-2.5 1h-9q-3 0-5 .5t-5 .5h-34q-2-1-3.5-1H521q-2-1-4.5-1H511h-1-1q-23 1-40 16t-21 37q-2 0-4.5-.5T438 947q-2-1-5-1.5t-5-1.5q-2 0-3-.5l-3-1.5q-1 0-2.5-.5t-2.5-.5l-6-2q-3-1-5-2-1 0-2-.5l-1-.5q-1 0-1.5-.5t-1.5-.5q-2-1-3.5-1.5t-2.5-.5q-3-2-6-3l-6-2q-3-1-6-2.5t-6-2.5q-2-1-3.5-2t-2.5-1q-2-1-3.5-1.5T358 917q-3-2-6.5-3.5T345 910q-3-1-6-3l-6-4q-2 0-3.5-1t-2.5-2q-2-1-3.5-2t-3.5-2l-6-4-6-4q-12-8-24-17.5T260 851q-11-11-21.5-22T218 806q-10-12-18.5-24.5T183 756q-8-12-14.5-25T157 705q-2-4-3-7l-2-6q-1-2-1.5-3.5T149 685q0-1-1-2.5t-1-3.5l-2-6-2-6q-1-4-2-7l-2-6q0-1-.5-2.5t-.5-3.5q-1-1-1-2.5t-1-3.5q0-3-1-6t-1-6q-1-3-1.5-5.5t-.5-5.5q-1-2-1-3v-3q-1 0-1-1v-1-2-1q-1-3-1-5.5t-1-5.5v-2.5-2.5-2.5q0-1.5-1-2.5v-4.5-5.5q0-2-.5-4t-.5-5v-8-8-6.5-6.5-2.5-2.5q1-2 1-3.5V528v-3.5-2.5q1-2 1-4.5V512v-.5-.5-.5-.5q-1-23-16.5-40.5T74 449z"/></svg>