<svg xmlns="http://www.w3.org/2000/svg" viewBox="0 0 1024 1024"><path d="M512 0Q407 0 315 39T154 146Q85 214 44 305T0 500q2-91 36-170 33-80 89.5-139T257 98q74-34 159-34 86 0 162 35t132.5 96Q767 256 799 338q33 81 33 174 0 40 28 68t68 28q40 0 68-28t28-68q0-106-40-199-40-94-109.5-163.5T711 40Q618 0 512 0m0 1024q105 0 197-39t161-107q69-68 110-159t44-195q-2 91-36 170-33 80-89.5 139T767 926q-74 34-159 34-86 0-162-35t-132.5-96Q257 768 225 686q-33-81-33-174 0-40-28-68t-68-28q-40 0-68 28T0 512q0 106 40 199 40 94 109.5 163.5T313 984q93 40 199 40z"/></svg>