<svg xmlns="http://www.w3.org/2000/svg" viewBox="0 0 1024 1024"><path d="M512 0Q406 0 313 40q-94 40-163.5 109.5T40 313Q0 406 0 512t40 199q40 94 109.5 163.5T313 984q93 40 199 40t199-40q94-40 163.5-109.5T984 711q40-93 40-199t-40-199q-40-94-109.5-163.5T711 40Q618 0 512 0m0 256q53 0 100 20 46 20 81 55t55 81q20 47 20 100t-20 100q-20 46-55 81t-81 55q-47 20-100 20t-100-20q-46-20-81-55t-55-81q-20-47-20-100t20-100q20-46 55-81t81-55q47-20 100-20m305 561q-30 31-65 55-36 23-74.5 39T597 936q-42 8-85 8t-85-8q-42-9-80.5-25T272 872q-35-24-65-55-31-30-55-65-23-36-39-74.5T88 597q-8-42-8-85t8-85q9-42 25-80.5t39-74.5q24-35 55-65l67 67q-49 50-73 112-25 61-25 126t25 126q24 62 73 112 48 47 109.5 72.5T512 848q67 0 128.5-25.5T750 750q49-50 73-112 25-61 25-126t-25-126q-24-62-73-112l67-67q31 30 55 65 23 36 39 74.5t25 80.5q8 42 8 85t-8 85q-9 42-25 80.5T872 752q-24 35-55 65z"/></svg>