<svg xmlns="http://www.w3.org/2000/svg" viewBox="0 0 1024 1024"><path d="M384 128q0-53 37.5-90.5T512 0q53 0 90.5 37.5T640 128q0 53-37.5 90.5T512 256q-53 0-90.5-37.5T384 128m407 384q0-43 31-74t74-31q43 0 74 31t31 74q0 43-31 74t-74 31q-43 0-74-31t-31-74M688 784q0-40 28-68t68-28q39 0 67 28t28 68q0 39-28 67t-67 28q-40 0-68-28t-28-67M426 896q0-36 25-61t61-25q36 0 61 25t25 61q0 36-25 61t-61 25q-36 0-61-25t-25-61M162 784q0-33 23-55.5t55-22.5q33 0 55.5 22.5T318 784q0 32-22.5 55T240 862q-32 0-55-23t-23-55M57 512q0-29 21-50t50-21q29 0 50 21t21 50q0 29-21 50t-50 21q-29 0-50-21t-21-50m119-272q0-26 19-45t45-19q27 0 45.5 19t18.5 45q0 27-18.5 45.5T240 304q-26 0-45-18.5T176 240m723 0q0 48-33.5 82T784 356q-48 0-82-34t-34-82q0-48 34-81.5t82-33.5q48 0 81.5 33.5T899 240z"/></svg>