<svg xmlns="http://www.w3.org/2000/svg" viewBox="0 0 1024 1024"><path d="M192 512q0-9 .5-18t1.5-18L9 416q-4 23-6.5 47T0 512q0 55 11 107 12 52 33 99.5T94 808q30 42 68 77l114-157q-39-43-61.5-98.5T192 512m640 0q0 62-22.5 117.5T748 728l114 157q38-35 68-77 29-42 50-89.5t33-99.5q11-52 11-107 0-25-2.5-49t-6.5-47l-185 60q1 9 1.5 18t.5 18M576 198q69 14 125 55.5T790 354l185-60q-27-58-68-108-41-49-92.5-87T703 37Q642 12 576 4v194M234 354q33-59 89-100.5T448 198V4q-66 8-127 33-60 24-111.5 62T117 186q-41 50-68 108l185 60m411 449q-31 14-64.5 21.5T512 832q-35 0-68.5-7.5T379 803L265 961q55 30 117.5 46.5T512 1024q67 0 129.5-16.5T759 961L645 803z"/></svg>