<svg xmlns="http://www.w3.org/2000/svg" viewBox="0 0 1024 1024"><path d="M416 928q0-40 28-68t68-28q40 0 68 28t28 68q0 40-28 68t-68 28q-40 0-68-28t-28-68M0 512q0-40 28-68t68-28q40 0 68 28t28 68q0 40-28 68t-68 28q-40 0-68-28T0 512m832 0q0-40 28-68t68-28q40 0 68 28t28 68q0 40-28 68t-68 28q-40 0-68-28t-28-68M122 218q0-40 28-68t68-28q40 0 68 28t28 68q0 40-28 68t-68 28q-40 0-68-28t-28-68m588 588q0-40 28-68t68-28q40 0 68 28t28 68q0 40-28 68t-68 28q-40 0-68-28t-28-68m-588 0q0-40 28-68t68-28q40 0 68 28t28 68q0 40-28 68t-68 28q-40 0-68-28t-28-68m588-588q0-40 28-68t68-28q40 0 68 28t28 68q0 40-28 68t-68 28q-40 0-68-28t-28-68z"/></svg>