<svg xmlns="http://www.w3.org/2000/svg" viewBox="0 0 1024 1024"><path d="M512 303q-25 0-42.5-17.5T452 243V64q0-24 17.5-41.5T512 5q25 0 42.5 17.5T572 64v179q0 25-17.5 42.5T512 303m0 694q-15 0-26-11t-11-26V781q0-16 11-27t26-11q15 0 26 11t11 27v179q0 15-11 26t-26 11M378 335q-15 0-28-7t-21-21l-89-155q-12-20-6-42.5T260 76q20-12 42.5-6T337 96l89 155q12 20 6 42.5T406 328q-7 4-14 5.5t-14 1.5m358 598q-9 0-17-4t-12-13l-90-155q-7-12-3.5-25.5T630 716q12-7 25-3.5t20 15.5l90 155q7 12 3.5 25.5T753 929q-4 2-8.5 3t-8.5 1M279 430q-6 0-13-2t-13-5L98 333q-19-10-24.5-31t5.5-40q11-19 32-24.5t39 5.5l156 89q18 11 23.5 32t-4.5 40q-8 12-20 19t-26 7m621 336q-4 0-8-1t-7-3l-155-90q-11-6-14-18t3-23q6-10 18-13.5t23 2.5l155 90q10 6 13.5 18t-2.5 23q-5 7-12 11t-14 4M243 560H64q-20 0-34-14t-14-34q0-20 14-34t34-14h179q20 0 34.5 14t14.5 34q0 20-14.5 34T243 560m717-18H781q-13 0-21.5-9t-8.5-21q0-12 8.5-21t21.5-9h179q12 0 20.5 9t8.5 21q0 12-8.5 21t-20.5 9M124 781q-11 0-21.5-6T86 758q-10-16-5-34t21-27l155-89q16-10 34-5t27 21q9 16 4.5 34T302 685l-155 90q-6 3-11.5 4.5T124 781m621-373q-8 0-15-4t-11-11q-6-11-3-23t14-18l155-90q10-6 22-2.5t19 13.5q6 11 2.5 23T915 314l-155 90q-4 2-8 3t-7 1M288 941q-5 0-10-1.5t-10-4.5q-15-8-19.5-24.5T253 879l89-155q9-15 25-19t31 4q15 9 19.5 25t-4.5 31l-89 155q-6 10-15.5 15.5T288 941m358-632q-4 0-7.5-1t-7.5-3q-10-6-13.5-18t2.5-23l90-155q6-10 18-13.5t23 2.5q10 7 13.5 19t-2.5 22l-90 155q-4 7-11 11t-15 4z"/></svg>