<svg xmlns="http://www.w3.org/2000/svg" viewBox="0 0 1024 1024"><path d="M992 871L750 665q-19-17-38.5-25t-35.5-7q43-50 67.5-114T768 384q0-80-30-149-30-70-82.5-122.5T533 30Q464 0 384 0T235 30q-70 30-122.5 82.5T30 235Q0 304 0 384t30 149q30 70 82.5 122.5T235 738q69 30 149 30 71 0 135-24.5T633 676q-1 16 7 35.5t25 38.5l206 242q27 30 64.5 32t64.5-24q26-27 24-64.5T992 871M384 640q-53 0-100-20-46-20-81-55t-55-81q-20-47-20-100t20-100q20-46 55-81t81-55q47-20 100-20t100 20q46 20 81 55t55 81q20 47 20 100t-20 100q-20 46-55 81t-81 55q-47 20-100 20z"/></svg>