<svg xmlns="http://www.w3.org/2000/svg" viewBox="0 0 1024 1024"><path d="M918 357q-17-23-39.5-48.5T831 257q-26-25-51.5-47.5T731 170q-39-28-59.5-35t-31.5-7H272q-33 0-56.5 23.5T192 208v736q0 33 23.5 56.5T272 1024h608q33 0 56.5-23.5T960 944V448q0-11-7-31.5T918 357m-133-54q23 23 41.5 43.5T858 384H704V230q17 13 37.5 31.5T785 303m111 641q0 7-4.5 11.5T880 960H272q-7 0-11.5-4.5T256 944V208q0-7 4.5-11.5T272 192h368v224q0 13 9.5 22.5T672 448h224v496M603 42q-39-28-59.5-35T512 0H144q-33 0-56.5 23.5T64 80v736q0 29 18.5 51t45.5 27V80q0-7 4.5-11.5T144 64h487q-7-6-14-11.5T603 42z"/></svg>