<svg xmlns="http://www.w3.org/2000/svg" viewBox="0 0 1024 1024"><path d="M690 472q-45-22-98.5-23.5T495 478q52-5 105 6.5t90 50.5q36-41 89-52.5t104-7.5q-43-28-95.5-27T690 472m-24 134q-52-1-100.5 15.5T475 666q-41-17-85-24t-88-2.5q-44 4.5-86 20.5-41 16-75 45 19-1 38.5-4.5T219 694q71-7 142.5 12T487 774q22-33 53-58.5t67-41.5q47-23 99-28.5t104-6.5q-32-21-69.5-27t-74.5-6m252-377q-17-23-39.5-48.5T831 129q-26-25-51.5-47.5T731 42q-39-28-59.5-35T640 0H144q-33 0-56.5 23.5T64 80v864q0 33 23.5 56.5T144 1024h736q33 0 56.5-23.5T960 944V320q0-11-7-31.5T918 229m-133-54q23 23 41.5 43.5T858 256H704V102q17 13 37.5 31.5T785 175m111 769q0 7-4.5 11.5T880 960H144q-7 0-11.5-4.5T128 944V80q0-7 4.5-11.5T144 64h496v224q0 13 9.5 22.5T672 320h224v624z"/></svg>