<svg xmlns="http://www.w3.org/2000/svg" viewBox="0 0 1024 1024"><path d="M918 229q-17-23-39.5-48.5T831 129q-26-25-51.5-47.5T731 42q-39-28-59.5-35T640 0H144q-33 0-56.5 23.5T64 80v864q0 33 23.5 56.5T144 1024h736q33 0 56.5-23.5T960 944V320q0-11-7-31.5T918 229m-133-54q23 23 41.5 43.5T858 256H704V102q17 13 37.5 31.5T785 175m111 769q0 7-4.5 11.5T880 960H144q-7 0-11.5-4.5T128 944V80q0-7 4.5-11.5T144 64h496v224q0 13 9.5 22.5T672 320h224v624M256 64h128v64H256V64m128 64h128v64H384v-64m-128 64h128v64H256v-64m128 64h128v64H384v-64m-128 64h128v64H256v-64m128 64h128v64H384v-64m-128 64h128v64H256v-64m128 64h128v64H384v-64M256 848q0 20 14 34t34 14h160q20 0 34-14t14-34V688q0-20-14-34t-34-14h-80v-64H256v272m192-80v64H320v-64h128z"/></svg>