<svg xmlns="http://www.w3.org/2000/svg" viewBox="0 0 1024 1024"><path d="M512 1024q106 0 199-40 94-40 163.5-109.5T984 711q40-93 40-199t-40-199q-40-94-109.5-163.5T711 40Q618 0 512 0T313 40q-94 40-163.5 109.5T40 313Q0 406 0 512t40 199q40 94 109.5 163.5T313 984q93 40 199 40m0-928q86 0 162 33 76 32 132.5 88.5T895 350q33 76 33 162t-33 162q-32 76-88.5 132.5T674 895q-76 33-162 33t-162-33q-76-32-132.5-88.5T129 674q-33-76-33-162t33-162q32-76 88.5-132.5T350 129q76-33 162-33m192 685q-29-49-80-79t-112-30q-61 0-112 30t-80 79l-82-50q21-35 50-63 29-29 64-49.5t76-31.5q40-11 84-11t84 11q41 11 76 31.5t64 49.5q29 28 50 63l-82 50m63-501q3 13-3.5 24.5T744 319q-13 3-28 8.5T687 340q8 9 12.5 20t4.5 24q0 27-18.5 45.5T640 448q-27 0-45.5-18.5T576 384v-2-1q2-36 28-60t54-38q26-13 47.5-19.5T728 257q13-3 24.5 3.5T767 280m-510 0q3-13 14.5-19.5T296 257q1 0 22.5 6.5T366 283q28 14 54 38t28 60v3q0 27-18.5 45.5T384 448q-27 0-45.5-18.5T320 384q0-13 4.5-24t12.5-20q-14-7-29-12.5t-28-8.5q-13-3-19.5-14.5T257 280z"/></svg>