<svg xmlns="http://www.w3.org/2000/svg" viewBox="0 0 1024 1024"><path d="M384 416q0 13-9.5 22.5T352 448q-13 0-22.5-9.5T320 416q0-13 9.5-22.5T352 384q13 0 22.5 9.5T384 416m320 0q0 13-9.5 22.5T672 448q-13 0-22.5-9.5T640 416q0-13 9.5-22.5T672 384q13 0 22.5 9.5T704 416M512 0Q406 0 313 40q-94 40-163.5 109.5T40 313Q0 406 0 512t40 199q40 94 109.5 163.5T313 984q93 40 199 40t199-40q94-40 163.5-109.5T984 711q40-93 40-199t-40-199q-40-94-109.5-163.5T711 40Q618 0 512 0M256 416q0-40 28-68t68-28q40 0 68 28t28 68q0 40-28 68t-68 28q-40 0-68-28t-28-68m384 352H384v-64h256v64m32-256q-40 0-68-28t-28-68q0-40 28-68t68-28q40 0 68 28t28 68q0 40-28 68t-68 28z"/></svg>