<svg xmlns="http://www.w3.org/2000/svg" viewBox="0 0 1024 1024"><path d="M512 1024q106 0 199-40 94-40 163.5-109.5T984 711q40-93 40-199t-40-199q-40-94-109.5-163.5T711 40Q618 0 512 0T313 40q-94 40-163.5 109.5T40 313Q0 406 0 512t40 199q40 94 109.5 163.5T313 984q93 40 199 40m0-928q86 0 162 33 76 32 132.5 88.5T895 350q33 76 33 162t-33 162q-32 76-88.5 132.5T674 895q-76 33-162 33t-162-33q-76-32-132.5-88.5T129 674q-33-76-33-162t33-162q32-76 88.5-132.5T350 129q76-33 162-33M384 416q0 13-9.5 22.5T352 448q-13 0-22.5-9.5T320 416q0-13 9.5-22.5T352 384q13 0 22.5 9.5T384 416m-32-96q40 0 68 28t28 68q0 40-28 68t-68 28q-40 0-68-28t-28-68q0-40 28-68t68-28m0-64q-66 0-113 47t-47 113q0 66 47 113t113 47q66 0 113-47t47-113q0-66-47-113t-113-47m352 160q0 13-9.5 22.5T672 448q-13 0-22.5-9.5T640 416q0-13 9.5-22.5T672 384q13 0 22.5 9.5T704 416m-32-96q40 0 68 28t28 68q0 40-28 68t-68 28q-40 0-68-28t-28-68q0-40 28-68t68-28m0-64q-66 0-113 47t-47 113q0 66 47 113t113 47q66 0 113-47t47-113q0-66-47-113t-113-47M384 704h256v64H384v-64z"/></svg>