<svg xmlns="http://www.w3.org/2000/svg" viewBox="0 0 1024 1024"><path d="M512 0Q406 0 313 40q-94 40-163.5 109.5T40 313Q0 406 0 512t40 199q40 94 109.5 163.5T313 984q93 40 199 40t199-40q94-40 163.5-109.5T984 711q40-93 40-199t-40-199q-40-94-109.5-163.5T711 40Q618 0 512 0m192 256q27 0 45.5 18.5T768 320q0 27-18.5 45.5T704 384q-27 0-45.5-18.5T640 320q0-27 18.5-45.5T704 256m-384 0q27 0 45.5 18.5T384 320q0 27-18.5 45.5T320 384q-27 0-45.5-18.5T256 320q0-27 18.5-45.5T320 256m367 555q-62 22-122-6t-83-90q-14-37-50-54t-73-3q-34 12-51.5 43.5T298 768h-65q-7-54 21.5-102.5T337 597q62-22 122 6t83 90q14 37 50 54t73 3q34-12 51.5-43.5T726 640h65q7 54-21.5 102.5T687 811z"/></svg>