<svg xmlns="http://www.w3.org/2000/svg" viewBox="0 0 1024 1024"><path d="M512 0Q406 0 313 40q-94 40-163.5 109.5T40 313Q0 406 0 512t40 199q40 94 109.5 163.5T313 984q93 40 199 40t199-40q94-40 163.5-109.5T984 711q40-93 40-199t-40-199q-40-94-109.5-163.5T711 40Q618 0 512 0m0 832q-36 0-70.5-8T376 802l34-55q23 10 49 15.5t53 5.5q70 0 128-34t92-90l54 33q-21 35-50 63-29 29-64 49.5T596 821q-40 11-84 11m320-448q0 26-19 45t-45 19H640q-26 0-45-19t-19-45H448q0 26-19 45t-45 19H256q-26 0-45-19t-19-45v-96q0-13 9.5-22.5T224 256h192q13 0 22.5 9.5T448 288v32h128v-32q0-13 9.5-22.5T608 256h192q13 0 22.5 9.5T832 288v96z"/></svg>