<svg xmlns="http://www.w3.org/2000/svg" viewBox="0 0 1024 1024"><path d="M512 0Q406 0 313 40q-94 40-163.5 109.5T40 313Q0 406 0 512t40 199q40 94 109.5 163.5T313 984q93 40 199 40t199-40q94-40 163.5-109.5T984 711q40-93 40-199t-40-199q-40-94-109.5-163.5T711 40Q618 0 512 0M320 736q0 13-9.5 22.5T288 768q-13 0-22.5-9.5T256 736v-64q0-13 9.5-22.5T288 640q13 0 22.5 9.5T320 672v64m0-192q0 13-9.5 22.5T288 576q-13 0-22.5-9.5T256 544v-64q0-13 9.5-22.5T288 448q13 0 22.5 9.5T320 480v64m32-160H224q-13 0-22.5-9.5T192 352q0-13 9.5-22.5T224 320h128q13 0 22.5 9.5T384 352q0 13-9.5 22.5T352 384m279 463q-5 4-11 6.5t-12 2.5q-6 0-12-2.5t-11-6.5q-3-4-21.5-9.5T512 832q-33 0-51.5 5.5T439 847q-10 9-23 9t-23-9q-9-10-9-23t9-23q23-22 61.5-27.5T512 768q19 0 57.5 5.5T631 801q9 10 9 23t-9 23m137-111q0 13-9.5 22.5T736 768q-13 0-22.5-9.5T704 736v-64q0-13 9.5-22.5T736 640q13 0 22.5 9.5T768 672v64m0-192q0 13-9.5 22.5T736 576q-13 0-22.5-9.5T704 544v-64q0-13 9.5-22.5T736 448q13 0 22.5 9.5T768 480v64m32-160H672q-13 0-22.5-9.5T640 352q0-13 9.5-22.5T672 320h128q13 0 22.5 9.5T832 352q0 13-9.5 22.5T800 384z"/></svg>