<svg xmlns="http://www.w3.org/2000/svg" viewBox="0 0 1024 1024"><path d="M640 448q-27 0-45.5-18.5T576 384v-2-1q2-36 28-60t54-38q26-13 47.5-19.5T728 257q13-3 24.5 3.5T767 280q3 13-3.5 24.5T744 319q-13 3-28 8.5T687 340q8 9 12.5 20t4.5 24q0 27-18.5 45.5T640 448M280 319q-13-3-19.5-14.5T257 280q3-13 14.5-19.5T296 257q1 0 22.5 6.5T366 283q28 14 54 38t28 60v3q0 27-18.5 45.5T384 448q-27 0-45.5-18.5T320 384q0-13 4.5-24t12.5-20q-14-7-29-12.5t-28-8.5m232 417q61 0 112-30t80-79l82 50q-21 35-50 63-29 29-64 49.5T596 821q-40 11-84 11t-84-11q-41-11-76-31.5T288 740q-29-28-50-63l82-50q29 49 80 79t112 30m512-672q0-34-7-66.5T997-64Q972-6 926.5 38T823 105q-32-25-69-44-36-20-75-33.5T598 7q-42-7-86-7t-86 7q-42 7-81 20.5T270 61q-37 19-69 44-58-23-103.5-67T27-64Q14-35 7-2.5T0 64q0 55 17.5 105T67 259q-32 56-49.5 120T0 512q0 106 40 199 40 94 109.5 163.5T313 984q93 40 199 40t199-40q94-40 163.5-109.5T984 711q40-93 40-199 0-69-17.5-133T957 259q32-40 49.5-90T1024 64M512 928q-86 0-162-33-76-32-132.5-88.5T129 674q-33-76-33-162t33-162q32-76 88.5-132.5T350 129q76-33 162-33t162 33q76 32 132.5 88.5T895 350q33 76 33 162t-33 162q-32 76-88.5 132.5T674 895q-76 33-162 33z"/></svg>