<svg xmlns="http://www.w3.org/2000/svg" viewBox="0 0 1024 1024"><path d="M256 656v96q0 7 4.5 11.5T272 768h112V640H272q-7 0-11.5 4.5T256 656m192-16h128v128H448V640m304 0H640v128h112q7 0 11.5-4.5T768 752v-96q0-7-4.5-11.5T752 640M512 0Q406 0 313 40q-94 40-163.5 109.5T40 313Q0 406 0 512t40 199q40 94 109.5 163.5T313 984q93 40 199 40t199-40q94-40 163.5-109.5T984 711q40-93 40-199t-40-199q-40-94-109.5-163.5T711 40Q618 0 512 0m64 381q2-36 28-60t54-38q26-13 47.5-19.5T728 257q13-3 24.5 3.5T767 280q3 13-3.5 24.5T744 319q-13 3-28 8.5T687 340q8 9 12.5 20t4.5 24q0 27-18.5 45.5T640 448q-27 0-45.5-18.5T576 384v-2-1M257 280q3-13 14.5-19.5T296 257q1 0 22.5 6.5T366 283q28 14 54 38t28 60v3q0 27-18.5 45.5T384 448q-27 0-45.5-18.5T320 384q0-13 4.5-24t12.5-20q-14-7-29-12.5t-28-8.5q-13-3-19.5-14.5T257 280m575 472q0 33-23.5 56.5T752 832H272q-33 0-56.5-23.5T192 752v-96q0-33 23.5-56.5T272 576h480q33 0 56.5 23.5T832 656v96z"/></svg>