<svg xmlns="http://www.w3.org/2000/svg" viewBox="0 0 1024 1024"><path d="M366 283q-26-13-47.5-19.5T296 257q-13-3-24.5 3.5T257 280q-3 13 3.5 24.5T280 319q13 3 28 8.5t29 12.5q-8 9-12.5 20t-4.5 24q0 27 18.5 45.5T384 448q27 0 45.5-18.5T448 384v-2-1q-2-36-28-60t-54-38M512 0Q406 0 313 40q-94 40-163.5 109.5T40 313Q0 406 0 512t40 199q40 94 109.5 163.5T313 984q93 40 199 40t199-40q94-40 163.5-109.5T984 711q40-93 40-199t-40-199q-40-94-109.5-163.5T711 40Q618 0 512 0M236 824q9 4 17.5 6t18.5 2h480q10 0 18.5-2t17.5-6q-56 48-126.5 76T512 928q-79 0-149.5-28T236 824m20-72v-96q0-7 4.5-11.5T272 640h112v128H272q-7 0-11.5-4.5T256 752m192 16V640h128v128H448m192 0V640h112q7 0 11.5 4.5T768 656v96q0 7-4.5 11.5T752 768H640m184 20q4-9 6-17.5t2-18.5v-96q0-33-23.5-56.5T752 576H272q-33 0-56.5 23.5T192 656v96q0 10 2 18.5t6 17.5q-48-56-76-126.5T96 512q0-86 33-162 32-76 88.5-132.5T350 129q76-33 162-33t162 33q76 32 132.5 88.5T895 350q33 76 33 162 0 79-28 149.5T824 788m-96-531q-1 0-22.5 6.5T658 283q-28 14-54 38t-28 60v3q0 27 18.5 45.5T640 448q27 0 45.5-18.5T704 384q0-13-4.5-24T687 340q14-7 29-12.5t28-8.5q13-3 19.5-14.5T767 280q-3-13-14.5-19.5T728 257z"/></svg>