<svg xmlns="http://www.w3.org/2000/svg" viewBox="0 0 1024 1024"><path d="M512 1024q106 0 199-40 94-40 163.5-109.5T984 711q40-93 40-199t-40-199q-40-94-109.5-163.5T711 40Q618 0 512 0T313 40q-94 40-163.5 109.5T40 313Q0 406 0 512t40 199q40 94 109.5 163.5T313 984q93 40 199 40m0-928q86 0 162 33 76 32 132.5 88.5T895 350q33 76 33 162t-33 162q-32 76-88.5 132.5T674 895q-76 33-162 33t-162-33q-76-32-132.5-88.5T129 674q-33-76-33-162t33-162q32-76 88.5-132.5T350 129q76-33 162-33M192 512v64q0 53 20 99 20 47 55 82t82 55q46 20 99 20h128q53 0 99-20 47-20 82-55t55-82q20-46 20-99v-64H192m192 245q-20-7-38-18.5T312 712q-27-28-41.5-63T256 576h128v181m192 11H448V576h128v192m136-56q-16 15-34 26.5T640 757V576h128q0 38-14.5 73T712 712M225 384q8 0 13.5-4.5T245 367q5-27 26-45t49-18q28 0 49 18t26 45q1 8 6.5 12.5T415 384q7 0 12.5-4.5T434 367q1-5 1.5-9.5t.5-9.5q0-48-34-82t-82-34q-48 0-82 34t-34 82q0 5 .5 9.5t1.5 9.5q1 8 6.5 12.5T225 384m384 0q8 0 13.5-4.5T629 367q5-27 26-45t49-18q28 0 49 18t26 45q1 8 6.5 12.5T799 384q7 0 12.5-4.5T818 367q1-5 1.5-9.5t.5-9.5q0-48-34-82t-82-34q-48 0-82 34t-34 82q0 5 .5 9.5t1.5 9.5q1 8 6.5 12.5T609 384z"/></svg>