<svg xmlns="http://www.w3.org/2000/svg" viewBox="0 0 1024 1024"><path d="M512 0Q406 0 313 40q-94 40-163.5 109.5T40 313Q0 406 0 512t40 199q40 94 109.5 163.5T313 984q93 40 199 40t199-40q94-40 163.5-109.5T984 711q40-93 40-199t-40-199q-40-94-109.5-163.5T711 40Q618 0 512 0m192 236q48 0 82 34t34 82q0 5-.5 9.5T818 371q-1 8-6.5 12.5T799 388q-8 0-13.5-4.5T779 371q-5-27-26-40t-49-13q-28 0-49 13t-26 40q-1 8-6.5 12.5T609 388q-7 0-12.5-4.5T590 371q-1-5-1.5-9.5t-.5-9.5q0-48 34-82t82-34m-384 0q48 0 82 34t34 82q0 5-.5 9.5T434 371q-1 8-6.5 12.5T415 388q-8 0-13.5-4.5T395 371q-5-27-26-40t-49-13q-28 0-49 13t-26 40q-1 8-6.5 12.5T225 388q-7 0-12.5-4.5T206 371q-1-5-1.5-9.5t-.5-9.5q0-48 34-82t82-34M192 576h192v248q-41-11-76-34-36-24-61.5-56.5T207 661q-15-40-15-85m256 256V576h128v256H448m192-8V576h192q0 45-15 85-14 40-39.5 72.5T716 790q-35 23-76 34z"/></svg>