<svg xmlns="http://www.w3.org/2000/svg" viewBox="0 0 1024 1024"><path d="M512 0Q406 0 313 40q-94 40-163.5 109.5T40 313Q0 406 0 512t40 199q40 94 109.5 163.5T313 984q93 40 199 40t199-40q94-40 163.5-109.5T984 711q40-93 40-199t-40-199q-40-94-109.5-163.5T711 40Q618 0 512 0m192 256q27 0 45.5 28t18.5 68q0 40-18.5 68T704 448q-27 0-45.5-28T640 352q0-40 18.5-68t45.5-28m-384 0q27 0 45.5 28t18.5 68q0 40-18.5 68T320 448q-27 0-45.5-28T256 352q0-40 18.5-68t45.5-28m192 640q-63 0-118-25-56-24-99-67t-70-101q-28-58-33-125 35 20 73 36t78.5 26.5Q384 651 426 657q43 6 86 6t86-6q42-6 82.5-16.5T759 614q38-16 73-36-5 67-33 125-27 58-70 101t-99 67q-55 25-118 25z"/></svg>