<svg xmlns="http://www.w3.org/2000/svg" viewBox="0 0 1024 1024"><path d="M512 0Q406 0 313 40q-94 40-163.5 109.5T40 313Q0 406 0 512t40 199q40 94 109.5 163.5T313 984q93 40 199 40t199-40q94-40 163.5-109.5T984 711q40-93 40-199t-40-199q-40-94-109.5-163.5T711 40Q618 0 512 0m192 256q27 0 45.5 18.5T768 320q0 27-18.5 45.5T704 384q-27 0-45.5-18.5T640 320q0-27 18.5-45.5T704 256m-384 0q27 0 45.5 18.5T384 320q0 27-18.5 45.5T320 384q-27 0-45.5-18.5T256 320q0-27 18.5-45.5T320 256m224 423q-1 0-2-1l-2-2q-14-14-21-32t-7-36q0 18-7 36t-21 32l-2 2q-1 1-2 1-32 30-81 32-49 1-95-16t-79-49q-33-32-33-70 46 30 84 14t72-50q28-28 68-28t68 28q14 14 21 32t7 36q0-18 7-36t21-32q28-28 68-28t68 28q34 34 71.5 50t84.5-14q0 38-33 70t-79 49q-46 17-95 16-49-2-81-32z"/></svg>