<svg xmlns="http://www.w3.org/2000/svg" viewBox="0 0 1024 1024"><path d="M740 655l34 34 17 18q17 18 16 19t15 19q16 18 13 20t10 22q13 20 6 23t2 24q9 21-1 25-22 84-100 100-14 2-97-8t-139-10h-8q-56 0-139 10t-97 8q-78-16-100-100-6-40 14-82t37-60q17-18 61-62 20-22 53-62t53-62q36-44 74-56 8-4 14-4 12-2 34-2 24 0 34 2 6 0 14 4 38 12 74 56 18 22 52 62t54 62m-14-228q0-44 31-76t75-32q44 0 75 32t31 76q0 44-31 75t-75 31q-44 0-75-31t-31-75M534 255q0-44 31-75t75-31q44 0 75 31t31 75q0 44-31 76t-75 32q-44 0-75-32t-31-76m-256 0q0-44 31-75t75-31q44 0 75 31t31 75q0 44-31 76t-75 32q-44 0-75-32t-31-76M86 427q0-44 31-76t75-32q44 0 75 32t31 76q0 44-31 75t-75 31q-44 0-75-31t-31-75z"/></svg>