<svg xmlns="http://www.w3.org/2000/svg" viewBox="0 0 1024 1024"><path d="M512 0Q406 0 313 40q-94 40-163.5 109.5T40 313Q0 406 0 512t40 199q40 94 109.5 163.5T313 984q93 40 199 40t199-40q94-40 163.5-109.5T984 711q40-93 40-199t-40-199q-40-94-109.5-163.5T711 40Q618 0 512 0m192 256q27 0 45.5 18.5T768 320q0 27-18.5 45.5T704 384q-27 0-45.5-18.5T640 320q0-27 18.5-45.5T704 256m-384 0q27 0 45.5 18.5T384 320q0 27-18.5 45.5T320 384q-27 0-45.5-18.5T256 320q0-27 18.5-45.5T320 256m384 525q-29-49-80-79t-112-30q-61 0-112 30t-80 79l-82-50q21-35 50-63 29-29 64-49.5t76-31.5q40-11 84-11t84 11q41 11 76 31.5t64 49.5q29 28 50 63l-82 50z"/></svg>