<svg xmlns="http://www.w3.org/2000/svg" viewBox="0 0 1024 1024"><path d="M512 0Q406 0 313 40q-94 40-163.5 109.5T40 313Q0 406 0 512t40 199q40 94 109.5 163.5T313 984q93 40 199 40t199-40q94-40 163.5-109.5T984 711q40-93 40-199t-40-199q-40-94-109.5-163.5T711 40Q618 0 512 0M320 448q-27 0-45.5-28T256 352q0-40 18.5-68t45.5-28q27 0 45.5 28t18.5 68q0 40-18.5 68T320 448m192 384q-53 0-90.5-37.5T384 704q0-53 37.5-90.5T512 576q53 0 90.5 37.5T640 704q0 53-37.5 90.5T512 832m192-384q-27 0-45.5-28T640 352q0-40 18.5-68t45.5-28q27 0 45.5 28t18.5 68q0 40-18.5 68T704 448z"/></svg>