<svg xmlns="http://www.w3.org/2000/svg" viewBox="0 0 1024 1024"><path d="M512 0Q406 0 313 40q-94 40-163.5 109.5T40 313Q0 406 0 512t40 199q40 94 109.5 163.5T313 984q93 40 199 40t199-40q94-40 163.5-109.5T984 711q40-93 40-199t-40-199q-40-94-109.5-163.5T711 40Q618 0 512 0M311 331q-10 9-23 9t-23-9q-9-10-9-23t9-23q34-33 87-33t87 33q9 10 9 23t-9 23q-5 4-11 6.5t-12 2.5q-6 0-12-2.5t-11-6.5q-14-15-41-15t-41 15m201 501q-53 0-90.5-47T384 672q0-66 37.5-113t90.5-47q53 0 90.5 47T640 672q0 66-37.5 113T512 832m247-501q-5 4-11 6.5t-12 2.5q-6 0-12-2.5t-11-6.5q-14-15-41-15t-41 15q-10 9-23 9t-23-9q-9-10-9-23t9-23q34-33 87-33t87 33q9 10 9 23t-9 23z"/></svg>