<svg xmlns="http://www.w3.org/2000/svg" viewBox="0 0 1024 1024"><path d="M512 1024q106 0 199-40 94-40 163.5-109.5T984 711q40-93 40-199t-40-199q-40-94-109.5-163.5T711 40Q618 0 512 0T313 40q-94 40-163.5 109.5T40 313Q0 406 0 512t40 199q40 94 109.5 163.5T313 984q93 40 199 40m0-928q86 0 162 33 76 32 132.5 88.5T895 350q33 76 33 162t-33 162q-32 76-88.5 132.5T674 895q-76 33-162 33t-162-33q-76-32-132.5-88.5T129 674q-33-76-33-162t33-162q32-76 88.5-132.5T350 129q76-33 162-33m128 576q0 66-37.5 113T512 832q-53 0-90.5-47T384 672q0-66 37.5-113t90.5-47q53 0 90.5 47T640 672M416 340q-6 0-12-2.5t-11-6.5q-14-15-41-15t-41 15q-10 9-23 9t-23-9q-9-10-9-23t9-23q34-33 87-33t87 33q9 10 9 23t-9 23q-5 4-11 6.5t-12 2.5m320 0q-6 0-12-2.5t-11-6.5q-14-15-41-15t-41 15q-10 9-23 9t-23-9q-9-10-9-23t9-23q34-33 87-33t87 33q9 10 9 23t-9 23q-5 4-11 6.5t-12 2.5z"/></svg>