<svg xmlns="http://www.w3.org/2000/svg" viewBox="0 0 1024 1024"><path d="M512 1024q106 0 199-40 94-40 163.5-109.5T984 711q40-93 40-199t-40-199q-40-94-109.5-163.5T711 40Q618 0 512 0T313 40q-94 40-163.5 109.5T40 313Q0 406 0 512t40 199q40 94 109.5 163.5T313 984q93 40 199 40m0-928q86 0 162 33 76 32 132.5 88.5T895 350q33 76 33 162t-33 162q-32 76-88.5 132.5T674 895q-76 33-162 33t-162-33q-76-32-132.5-88.5T129 674q-33-76-33-162t33-162q32-76 88.5-132.5T350 129q76-33 162-33M256 320q0-27 18.5-45.5T320 256q27 0 45.5 18.5T384 320q0 27-18.5 45.5T320 384q-27 0-45.5-18.5T256 320m384 0q0-27 18.5-45.5T704 256q27 0 45.5 18.5T768 320q0 27-18.5 45.5T704 384q-27 0-45.5-18.5T640 320m128 256v64h-64v96q0 40-28 68t-68 28q-40 0-68-28t-28-68v-96H256v-64h512z"/></svg>