<svg xmlns="http://www.w3.org/2000/svg" viewBox="0 0 1024 1024"><path d="M512 0Q406 0 313 40q-94 40-163.5 109.5T40 313Q0 406 0 512t40 199q40 94 109.5 163.5T313 984q93 40 199 40t199-40q94-40 163.5-109.5T984 711q40-93 40-199t-40-199q-40-94-109.5-163.5T711 40Q618 0 512 0m192 256q27 0 45.5 28t18.5 68q0 40-18.5 68T704 448q-27 0-45.5-28T640 352q0-40 18.5-68t45.5-28m-352 56q45 0 73.5 15.5T454 369q0 6 1.5 25.5T454 419q-11-18-39-30t-63-12q-35 0-63 12t-39 30q-3-5-1.5-24.5T250 369q0-26 28.5-41.5T352 312m148 520q-44 0-86-12-41-11-77.5-32T270 737q-30-30-53-66 27 21 63 33 35 13 77.5 17.5T447 723q47-2 96-12 52-10 98-27 47-17 84-39.5t64-50.5q27-28 42-60-8 63-37 118-29 54-73 94t-101 63q-56 23-120 23z"/></svg>