<svg xmlns="http://www.w3.org/2000/svg" viewBox="0 0 1024 1024"><path d="M512 1024q106 0 199-40 94-40 163.5-109.5T984 711q40-93 40-199t-40-199q-40-94-109.5-163.5T711 40Q618 0 512 0T313 40q-94 40-163.5 109.5T40 313Q0 406 0 512t40 199q40 94 109.5 163.5T313 984q93 40 199 40m0-928q86 0 162 33 76 32 132.5 88.5T895 350q33 76 33 162t-33 162q-32 76-88.5 132.5T674 895q-76 33-162 33t-162-33q-76-32-132.5-88.5T129 674q-33-76-33-162t33-162q32-76 88.5-132.5T350 129q76-33 162-33m31 615q52-10 98-27 47-17 84-39.5t64-50.5q27-28 42-60-8 63-37 118-29 54-73 94t-101 63q-56 23-120 23-44 0-86-12-41-11-77.5-32T270 737q-30-30-53-66 27 21 63 33 35 13 77.5 17.5T447 723q47-2 96-12m97-359q0-40 18.5-68t45.5-28q27 0 45.5 28t18.5 68q0 40-18.5 68T704 448q-27 0-45.5-28T640 352m-288 20q-31 0-56 10.5T261 409q-2-4-3.5-19t-1.5-20q0-23 28-39.5t68-16.5q40 0 68 16.5t28 39.5q0 5-1.5 20t-3.5 19q-10-16-35-26.5T352 372z"/></svg>