<svg xmlns="http://www.w3.org/2000/svg" viewBox="0 0 1024 1024"><path d="M810 895q62 0 106-43t44-105q0-62-44-106t-106-44q-62 0-105 44t-43 106q0 62 43 105t105 43m0-362q90 0 152 62t62 152q0 90-62 151t-152 61q-90 0-151-61t-61-151q0-90 61-152t151-62m-350-64l94 98v264h-84V619L332 499q-24-16-24-60 0-36 24-60l120-120q16-24 60-24 38 0 68 24l82 82q64 64 152 64v86q-126 0-216-90l-34-34-104 102M214 895q62 0 105-43t43-105q0-62-43-106t-105-44q-62 0-106 44T64 747q0 62 44 105t106 43m0-362q90 0 151 62t61 152q0 90-61 151t-151 61q-90 0-152-61T0 747q0-90 62-152t152-62m448-278q-34 0-60-25t-26-59q0-34 26-60t60-26q34 0 59 26t25 60q0 34-25 59t-59 25z"/></svg>