<svg xmlns="http://www.w3.org/2000/svg" viewBox="0 0 1024 1024"><path d="M342 235q18 0 30-13t12-31q0-18-12-30t-30-12q-18 0-31 12t-13 30q0 18 13 31t31 13m120-86h348v86h-42v84h-86v-84H462q-30 84-120 84-52 0-90-38t-38-90q0-52 38-90t90-38q38 0 73 25t47 61M268 619h488l-56-172H326l-58 172m424 170q22 0 37-15t15-37q0-22-15-37t-37-15q-22 0-37 15t-15 37q0 22 15 37t37 15m-360 0q22 0 37-15t15-37q0-22-15-37t-37-15q-22 0-37 15t-15 37q0 22 15 37t37 15m368-384q28 0 40 30l70 212v292q0 20-20 20h-44q-20 0-20-20v-64H298v64q0 20-20 20h-44q-20 0-20-22V647l70-212q10-30 40-30h376z"/></svg>