<svg xmlns="http://www.w3.org/2000/svg" viewBox="0 0 1024 1024"><path d="M214 575h596l-64-192H278l-64 192m532 214q26 0 45-18t19-46q0-28-19-46t-45-18q-26 0-45 18t-19 46q0 28 19 46t45 18m-468 0q26 0 45-18t19-46q0-28-19-46t-45-18q-26 0-45 18t-19 46q0 28 19 46t45 18m530-426l88 256v340q0 18-12 31t-30 13h-44q-18 0-30-13t-12-31v-42H256v42q0 18-12 31t-30 13h-44q-18 0-30-13t-12-31V619l88-256q14-44 62-44h468q48 0 62 44M298 235q-26 0-45-19t-19-45q0-18 16-47t32-49l16-20q64 74 64 116 0 26-19 45t-45 19m214 0q-28 0-46-19t-18-45q0-18 16-47t32-49l16-20q64 74 64 116 0 26-18 45t-46 19m214 0q-26 0-45-19t-19-45q0-18 16-47t32-49l16-20q64 74 64 116 0 26-19 45t-45 19z"/></svg>