<svg xmlns="http://www.w3.org/2000/svg" viewBox="0 0 1024 1024"><path d="M320 619h384q-24 58-76 93t-116 35q-64 0-116-35t-76-93m192 212q102 0 181-60t105-154q2 0 6 1t6 1q34 0 60-26t26-60q0-34-26-60t-60-26q-2 0-6 1t-6 1q-26-94-105-154t-181-60q-102 0-181 60T226 449q-2 0-6-1t-6-1q-34 0-60 26t-26 60q0 34 26 60t60 26q2 0 6-1t6-1q26 94 105 154t181 60m466-270q-8 44-42 84t-76 52q-44 94-139 157t-209 63q-142 0-254-98-62-54-92-122-42-12-77-52t-43-84q-4-16-4-28t4-28q8-44 43-84t77-52q34-76 92-124 108-96 254-96t254 96q62 58 92 124 42 12 77 52t43 84q4 16 4 28t-4 28m-626-92q0-22 16-38t38-16q22 0 37 16t15 38q0 22-15 38t-37 16q-22 0-38-16t-16-38m214 0q0-22 15-38t37-16q22 0 38 16t16 38q0 22-16 38t-38 16q-22 0-37-16t-15-38z"/></svg>