<svg xmlns="http://www.w3.org/2000/svg" viewBox="0 0 1024 1024"><path d="M512 0Q406 0 313 40q-94 40-163.5 109.5T40 313Q0 406 0 512t40 199q40 94 109.5 163.5T313 984q93 40 199 40t199-40q94-40 163.5-109.5T984 711q40-93 40-199t-40-199q-40-94-109.5-163.5T711 40Q618 0 512 0m0 960q-47 0-91.5-9.5T335 924l233-263q4-4 6-9.5t2-11.5v-96q0-13-9.5-22.5T544 512q-42 0-84-18-42-19-75-41t-53-41q-21-18-21-19-5-4-11-6.5t-12-2.5H160q-13 0-22.5 9.5T128 416v192q0 9 5 17t13 12l110 55v188q-44-31-79-71-35-39-60.5-86.5T78 622q-14-53-14-110 0-52 11-100t32-92h117q6 0 12-2.5t11-6.5l128-128q4-5 6.5-11t2.5-12V83q30-9 62.5-14t65.5-5q53 0 102.5 11.5T708 109q-3 3-6 5.5t-6 5.5q-27 27-41.5 62.5T640 256q0 38 14.5 73.5T696 392q28 27 63 41.5t73 14.5h9q6 19 12 54 5 34 7 81.5T856 691q-5 59-23 129 0 1-.5 2.5t-.5 2.5q-30 32-67 56-36 25-76.5 42.5T604 951q-45 9-92 9z"/></svg>