<svg xmlns="http://www.w3.org/2000/svg" viewBox="0 0 1024 1024"><path d="M938 533q0 28-2 40v12q0 10-4 26 0 6-4 14l-6 24q-2 2-2 7t-2 7q-2 6-6 17t-6 15q-4 12-14 32l-7 14-9 14q-2 2-7 10t-7 10L640 553l128-276-276 128-222-222q2-2 10-7t10-7q2 0 6-4 4 0 4-2l8-4 7-4q7-4 8-4t9-4q8-4 10-6t10-4q4-2 14-5t16-5l14-4 24-6q6 0 14-4 16-4 26-4h14q6 0 18-1t20-1q176 0 301 125t125 301M256 789l276-128-148-148-128 276M96 117l832 832-56 54-118-120q-2 2-10 7t-10 7q-2 0-6 4-4 0-4 2-20 14-52 24l-30 12q-2 2-7 2t-7 2l-24 6q-8 4-14 4-16 4-26 4h-12q-12 2-40 2-176 0-301-125T86 533q0-26 2-38v-14q0-10 4-26 4-8 4-14l6-24 4-14q2-6 5-16t5-14q0-2 4-9t6-11l16-32q2 0 4-4t2-6q2-2 7-10t7-10L42 173l54-56z"/></svg>