<svg xmlns="http://www.w3.org/2000/svg" viewBox="0 0 1024 1024"><path d="M512 255q-44 0-75 32t-31 76q0 44 31 75t75 31q44 0 75-31t31-75q0-44-31-76t-75-32M238 459q0-66 62-96-62-30-62-96 0-44 32-76t76-32q30 0 60 20v-8q0-44 31-76t75-32q44 0 75 32t31 76v8q32-20 60-20 44 0 76 32t32 76q0 66-62 96 62 30 62 96 0 44-32 75t-76 31q-34 0-60-18v8q0 44-31 75t-75 31q-44 0-75-31t-31-75v-8q-28 18-60 18-44 0-76-31t-32-75m274 500q-160 0-272-113T128 575q160 0 272 113t112 271m0 0q0-158 112-271t272-113q0 158-112 271T512 959z"/></svg>