<svg xmlns="http://www.w3.org/2000/svg" viewBox="0 0 1024 1024"><path d="M896 448h16q20 0 34-14t14-34V240q0-20-14-34t-34-14h-16V0H768v192h-16q-20 0-34 14t-14 34v160q0 20 14 34t34 14h16v576h128V448M768 256h128v128H768V256M592 832q20 0 34-14t14-34V624q0-20-14-34t-34-14h-16V0H448v576h-16q-20 0-34 14t-14 34v160q0 20 14 34t34 14h16v192h128V832h16M448 640h128v128H448V640M272 448q20 0 34-14t14-34V240q0-20-14-34t-34-14h-16V0H128v192h-16q-20 0-34 14t-14 34v160q0 20 14 34t34 14h16v576h128V448h16M128 256h128v128H128V256z"/></svg>