<svg xmlns="http://www.w3.org/2000/svg" viewBox="0 0 1024 1024"><path d="M564 669q0 14 20 14 10 0 14-4l8-10q4-8 4-12v-86q-4-8-4-12t-9-9q-9-5-13-5-6 0-12 6l-8 8q-6 8-6 12v86q6 8 6 12m80-42q0 26-4 34l-12 26q-14 12-22 12-4 0-13 2t-13 2q-18 0-26-4-4-2-10-6t-10-6q-18-10-18-60v-30q0-26 4-34l14-26q12-12 20-12 4 0 13-2t13-2q18 0 26 4 4 2 11 6t11 6q4 2 12 26 4 12 4 34v30m-178 76h-40V563l-42 12v-30l76-24h6v182M170 575q0-140 100-240t242-100V63l214 214-214 214V319q-104 0-180 75t-76 181q0 106 76 181t180 75q104 0 180-75t76-181h86q0 142-101 242T512 917q-140 0-241-100T170 575z"/></svg>