<svg xmlns="http://www.w3.org/2000/svg" viewBox="0 0 1024 1024"><path d="M572 669q0 14 22 14 8 0 12-4l8-10q4-8 4-12v-86q0-2-2-6t-2-6q0-4-8-9t-12-5q-8 0-14 6l-8 8q-4 8-4 12v86q4 8 4 12m80-42q0 26-4 34l-12 26q-14 12-22 12-4 0-13 2t-13 2q-14 0-46-16-4-2-12-26-6-18-6-34v-30q0-22 6-34l12-26q14-12 22-12 4 0 12-2t12-2q18 0 26 4 4 2 11 6t11 6q4 2 12 26 4 12 4 34v30m-226-30q30 0 30-26v-8q-4-4-4-8t-8-4h-22q-4 4-8 4t-4 8v8h-44q0-16 11-31t25-15q2 0 10-2t10-2q24 0 48 12 16 8 16 38v14q-4 8-4 12 0 8-8 8-4 0-14 10 18 10 22 16 8 16 8 26 0 18-4 22-2 2-6 8t-6 8q-8 8-22 8-4 0-13 2t-13 2q-16 0-20-4-2-2-10-4t-12-4q-18-10-18-42h36v8q4 4 4 8t8 4h22q4-4 8-4t4-8v-22q-4-4-4-8t-8-4h-26v-30h16m86-362q142 0 242 100t100 240q0 142-101 242T512 917q-140 0-241-100T170 575h86q0 106 76 181t180 75q104 0 180-75t76-181q0-106-76-181t-180-75v172L298 277 512 63v172z"/></svg>